<?xml version="1.0" encoding="utf-8"?>
<!-- Generator: Adobe Illustrator 18.0.0, SVG Export Plug-In . SVG Version: 6.00 Build 0)  -->
<!DOCTYPE svg PUBLIC "-//W3C//DTD SVG 1.1//EN" "http://www.w3.org/Graphics/SVG/1.1/DTD/svg11.dtd">
<svg version="1.1" id="Layer_1" xmlns="http://www.w3.org/2000/svg" xmlns:xlink="http://www.w3.org/1999/xlink" x="0px" y="0px"
	 viewBox="0 0 44.7 44.8" enable-background="new 0 0 44.7 44.8" xml:space="preserve">
<g>
	<path fill="#FFFFFF" d="M2.1,0h40.8c1.2,0,1.9,1.1,1.9,3.4v38.3c0,2.1-0.7,3.1-2.2,3.1H2.2C0.7,44.8,0,44,0,42.3V2.6
		C0.1,0.9,0.8,0,2.1,0z M25.5,13v5.8l-0.2,0.2h-4.2l-0.2,0.2v5.8l0.2,0.2h4.1c0.2,0.1,0.3,0.3,0.3,0.7v15.5l-0.1,0.1v0.1l0.3,0.2H32
		l0.3-0.3V25.6l0.2-0.2h5.2l0.7-6.3h-5.8l-0.2-0.2v-5.7c0-0.5,0.8-0.7,2.4-0.7h3.4l0.2-0.2V6.6l-0.2-0.2h-5.7
		c-3.4,0-5.6,1.5-6.7,4.4C25.6,11.3,25.5,12,25.5,13z"/>
</g>
</svg>
