<?xml version="1.0" encoding="utf-8"?>
<!-- Generator: Adobe Illustrator 18.0.0, SVG Export Plug-In . SVG Version: 6.00 Build 0)  -->
<!DOCTYPE svg PUBLIC "-//W3C//DTD SVG 1.1//EN" "http://www.w3.org/Graphics/SVG/1.1/DTD/svg11.dtd">
<svg version="1.1" id="Layer_1" xmlns="http://www.w3.org/2000/svg" xmlns:xlink="http://www.w3.org/1999/xlink" x="0px" y="0px"
	 viewBox="0 64 595.7 595.5" enable-background="new 0 64 595.7 595.5" xml:space="preserve">
<g>
	<g>
		<polygon fill="none" points="266.8,319.5 373.4,319.5 373.4,141.8 196.6,141.8 196.6,174.8 266.8,174.8 		"/>
		<path fill="none" d="M399.6,334.1c-60.4,0-109.6,49.2-109.6,110.5c0,60.8,49.2,110.5,109.6,110.5c60.8,0,109.6-49.2,109.6-110.5
			C509.2,383.8,460,334.1,399.6,334.1z M399.6,518.7c-40.7,0-73.7-33-73.7-74.1c0-40.7,33-74.1,73.7-74.1s73.7,33,73.7,74.1
			C472.8,485.2,439.8,518.7,399.6,518.7z"/>
		<ellipse fill="none" cx="528" cy="352.5" rx="25.3" ry="25.3"/>
		<path d="M399.6,370.5c-40.7,0-73.7,33-73.7,74.1c0,40.7,33,74.1,73.7,74.1s73.7-33,73.7-74.1C472.8,403.9,439.8,370.5,399.6,370.5
			z"/>
		<path d="M510.1,284.8H388.4V126.4H181.2v48.4h15.4v-33h176.9v177.7H266.8v153.7H162.7v45c0,47.1,38.1,85.7,85.2,85.7h262.5
			c46.7,0,85.2-38.5,85.2-85.7V370.5C595.3,323.4,557.2,284.8,510.1,284.8z M399.6,555.1c-60.4,0-109.6-49.2-109.6-110.5
			c0-60.8,49.2-110.5,109.6-110.5c60.8,0,109.6,49.2,109.6,110.5C509.2,505.4,460,555.1,399.6,555.1z M528,378.2
			c-14.1,0-25.3-11.6-25.3-25.3c0-14.1,11.1-25.7,25.3-25.7s25.3,11.6,25.3,25.7C553.3,366.6,542.2,378.2,528,378.2z"/>
		<path d="M266.8,319.5V174.8h-70.2h-15.4H0v298.5h162.7h104.1V319.5z M162.7,455.3H18V192.7h162.7h15.4h52.2v126.8v135.8H162.7z"/>
	</g>
	<polygon points="35.1,209.9 231.7,209.9 231.7,407.3 35.1,407.3 	"/>
</g>
</svg>
