<?xml version="1.0" encoding="utf-8"?>
<!-- Generator: Adobe Illustrator 18.0.0, SVG Export Plug-In . SVG Version: 6.00 Build 0)  -->
<!DOCTYPE svg PUBLIC "-//W3C//DTD SVG 1.1//EN" "http://www.w3.org/Graphics/SVG/1.1/DTD/svg11.dtd">
<svg version="1.1" id="Layer_1" xmlns="http://www.w3.org/2000/svg" xmlns:xlink="http://www.w3.org/1999/xlink" x="0px" y="0px"
	 viewBox="0 0 108.9 132.7" enable-background="new 0 0 108.9 132.7" xml:space="preserve">
<path d="M25.2,103.8h3.9v-7.9h-3.9V103.8z M25.2,77.4h3.9v-7.9h-3.9V77.4z M25.2,90.6h3.9v-7.9h-3.9V90.6z M25.2,64.2h3.9v-7.9h-3.9
	V64.2z M25.2,117h3.9v-7.9h-3.9V117z M89.3,0H26C15.1,0,6.3,8.9,6.3,19.7v7.8H4.2c-2.3,0-4.2,1.9-4.2,4.2c0,2.3,1.9,4.2,4.2,4.2h2.2
	v15.5H4.2c-2.3,0-4.2,1.9-4.2,4.2c0,2.3,1.9,4.2,4.2,4.2h2.2v15.5H4.2c-2.3,0-4.2,1.9-4.2,4.2c0,2.3,1.9,4.2,4.2,4.2h2.2v15.5H4.2
	c-2.3,0-4.2,1.9-4.2,4.2c0,2.3,1.9,4.2,4.2,4.2h2.2v5.4c0,10.9,8.8,19.7,19.6,19.7h63.3c10.8,0,19.6-8.9,19.6-19.7V19.7
	C108.9,8.9,100.1,0,89.3,0z M100,113c0,6-4.8,10.8-10.8,10.8H26c-5.9,0-10.8-4.9-10.8-10.8v-5.4h2.6c2.3,0,4.2-1.9,4.2-4.2
	c0-2.3-1.9-4.2-4.2-4.2h-2.6V83.8h2.6c2.3,0,4.2-1.9,4.2-4.2c0-2.3-1.9-4.2-4.2-4.2h-2.6V59.9h2.6c2.3,0,4.2-1.9,4.2-4.2
	c0-2.3-1.9-4.2-4.2-4.2h-2.6V35.9h2.6c2.3,0,4.2-1.9,4.2-4.2c0-2.3-1.9-4.2-4.2-4.2h-2.6v-7.8c0-6,4.8-10.8,10.8-10.8h63.3
	c5.9,0,10.8,4.9,10.8,10.8V113z M25.2,24.6h3.9v-7.9h-3.9V24.6z M25.2,51h3.9v-7.9h-3.9V51z M87.6,87.4c-2-2.6-6-7.3-10.3-9.4
	c-0.5-0.2-3.3,0.8-3.7,1c-0.4,0.2-0.6,0.6-1,1.2c-0.3,0.4-0.6,0.9-1,1.4c-3.2,3.8-6,2-7,1.3c-2.8-2.3-5.5-5.6-8.1-8.9c0,0,0,0,0,0
	c0,0,0,0,0,0c0,0,0,0,0,0c0,0,0,0,0,0c-2.5-3.3-5.1-6.8-6.6-10.1c-0.4-1.2-1.4-4.3,3-6.5c0.6-0.3,1.1-0.5,1.6-0.7
	c0.6-0.2,1.1-0.4,1.4-0.7c0.3-0.3,2-2.8,1.9-3.3c-1-4.7-4.5-9.7-6.5-12.3c-1-1.3-1.7-2.1-1.8-2.2C49.3,38,49.1,37.9,49,38l-3.5,0.2
	c-0.1,0-0.2,0-0.2,0.1c-0.1,0-1.6,1-2.5,1.8c-0.2,0.2-0.4,0.3-0.6,0.5c-2.1,1.9-4.7,4.8-5.4,8.5c-0.1,0.7-0.2,1.4-0.2,2.1
	c0,0.5,0.1,1.1,0.2,1.6c0,0,0,0.1,0,0.1c2,8.1,7.1,18.3,12.9,25.9l0.2,0.3c0,0,0,0,0,0c0,0,0,0,0,0c0,0,0,0,0,0.1c0,0,0,0.1,0,0.1
	c0,0,0,0,0,0c0,0,0,0,0,0l0.2,0.3c5.9,7.6,14.4,15,21.8,19c0,0,0.1,0,0.1,0c0.5,0.2,1,0.4,1.5,0.6c0.7,0.2,1.4,0.3,2.1,0.3
	c3.7,0.2,7.2-1.7,9.5-3.2c0.2-0.2,0.4-0.3,0.6-0.5c1-0.7,2.3-2,2.4-2c0.1-0.1,0.1-0.1,0.1-0.2l1-3.4c0-0.1,0-0.3-0.1-0.4
	C89.2,89.6,88.6,88.8,87.6,87.4z M25.2,37.8h3.9v-7.9h-3.9V37.8z"/>
</svg>
