<?xml version="1.0" encoding="utf-8"?>
<!-- Generator: Adobe Illustrator 18.0.0, SVG Export Plug-In . SVG Version: 6.00 Build 0)  -->
<!DOCTYPE svg PUBLIC "-//W3C//DTD SVG 1.1//EN" "http://www.w3.org/Graphics/SVG/1.1/DTD/svg11.dtd">
<svg version="1.1" id="Layer_1" xmlns="http://www.w3.org/2000/svg" xmlns:xlink="http://www.w3.org/1999/xlink" x="0px" y="0px"
	 viewBox="0 0 80.5 134.6" enable-background="new 0 0 80.5 134.6" xml:space="preserve">
<g>
	<path d="M66.8,63c-6.6,5.9-14.3,10.2-17.1,13.4c-1.7,2.1-2.1,3.6-2.1,7l-0.2,8.9H21.8l-0.2-12.3c-0.2-11.7,4-17.6,11.9-23.3
		L45,48.5c4.1-3,8.3-6.4,8.3-11.7c0-7.9-6.8-12.3-18.1-12.3c-11.5,0-20.7,5.7-26.5,11.4L0,14.6C4,10.2,16,0,40.3,0
		c24.1,0,40.3,15.3,40.3,33.5C80.5,49.2,74.1,56.2,66.8,63z M34.6,134.6c-10.5,0-17.7-6.1-17.7-16.3S24.1,102,34.6,102
		c10.5,0,17.7,6.1,17.7,16.3S45.2,134.6,34.6,134.6z"/>
</g>
</svg>
