<?xml version="1.0" encoding="utf-8"?>
<!-- Generator: Adobe Illustrator 18.0.0, SVG Export Plug-In . SVG Version: 6.00 Build 0)  -->
<!DOCTYPE svg PUBLIC "-//W3C//DTD SVG 1.1//EN" "http://www.w3.org/Graphics/SVG/1.1/DTD/svg11.dtd">
<svg version="1.1" id="Layer_1" xmlns="http://www.w3.org/2000/svg" xmlns:xlink="http://www.w3.org/1999/xlink" x="0px" y="0px"
	 viewBox="0 0 126.6 133.7" enable-background="new 0 0 126.6 133.7" xml:space="preserve">
<g>
	<path d="M35.7,106.2l9.2,12.8l9.2-12.8l9.2,12.8l9.2-12.8l9.2,12.8l9.2-12.8l10.6,14.8c-25.4,0-50.8,0-76.3,0L35.7,106.2
		L35.7,106.2z M114.2,40.9l11-2.4c2.5,0,1.5,8.8-2.6,8.8l-8.4,0.7v35.4c0,8.2-6.7,15-14.9,15h-72c-8.2,0-14.9-6.7-14.9-15V48L4,47.3
		c-4,0-5.1-8.8-2.6-8.8l11,2.4v-2.2h-0.2c-1,0-1.9-0.8-1.9-1.9c0-1,0.8-1.9,1.9-1.9h0.2c33.9,0,67.9,0,101.8,0h0.2
		c1,0,1.9,0.8,1.9,1.9c0,1-0.8,1.9-1.9,1.9h-0.2V40.9L114.2,40.9z M17.8,125.2h90.9v8.4H17.8V125.2L17.8,125.2z M69.1,11.6V6.4H58
		v5.2C61.7,11.4,65.4,11.4,69.1,11.6L69.1,11.6z M75.4,12c21.6,2.1,38,9.8,39.9,19.1H11.8c1.9-9.4,18.3-17,39.9-19.1V4.8
		c0-2.7,2.2-4.8,4.8-4.8h14.1c2.7,0,4.8,2.2,4.8,4.8V12L75.4,12z M18.4,40.9v42.5c0,4.9,4,9,8.9,9h4.6c-4.4-0.9-7.8-4.8-7.8-9.5v-42
		H18.4L18.4,40.9z"/>
</g>
</svg>
