<?xml version="1.0" encoding="utf-8"?>
<!-- Generator: Adobe Illustrator 18.0.0, SVG Export Plug-In . SVG Version: 6.00 Build 0)  -->
<!DOCTYPE svg PUBLIC "-//W3C//DTD SVG 1.1//EN" "http://www.w3.org/Graphics/SVG/1.1/DTD/svg11.dtd">
<svg version="1.1" id="Layer_1" xmlns="http://www.w3.org/2000/svg" xmlns:xlink="http://www.w3.org/1999/xlink" x="0px" y="0px"
	 viewBox="0 0 137.1 132.2" enable-background="new 0 0 137.1 132.2" xml:space="preserve">
<path fill-rule="evenodd" clip-rule="evenodd" d="M56.3,26.7H22.2l-5.9,9.5l5.9,9.8h34.1V26.7L56.3,26.7z M79.4,45.6h39.3h3.8l2,3.3
	l10.2,16.4l2.3,3.6l-2.2,3.7l-10.2,16.9l-2,3.4h-3.9H79.4v21.3h34.5v18.1H25.7v-18.1h32V60H18.3h-3.9l-2-3.4L2.2,39.7L0,36.1
	l2.3-3.6l10.2-16.4l2-3.3h3.8h39.4V9.4L68.5,0l10.9,9.4V45.6L79.4,45.6z M114.9,59.5H80.8v19.3h34.1l5.9-9.8L114.9,59.5z"/>
</svg>
