<?xml version="1.0" encoding="utf-8"?>
<!-- Generator: Adobe Illustrator 18.0.0, SVG Export Plug-In . SVG Version: 6.00 Build 0)  -->
<!DOCTYPE svg PUBLIC "-//W3C//DTD SVG 1.1//EN" "http://www.w3.org/Graphics/SVG/1.1/DTD/svg11.dtd">
<svg version="1.1" id="Layer_1" xmlns="http://www.w3.org/2000/svg" xmlns:xlink="http://www.w3.org/1999/xlink" x="0px" y="0px"
	 viewBox="0 0 56.8 40.6" enable-background="new 0 0 56.8 40.6" xml:space="preserve">
<g>
	<path fill="#FFFFFF" d="M39.3,0L39.3,0l0.1,0.1c0,0.2-0.3,0.6-0.8,1v0.3h0.3c1.3-0.4,2.2-0.6,2.8-0.6h0.1c0.3,0,0.5,0.2,0.5,0.5
		c0,0.6-1.1,1.1-3.4,1.6c-0.8,0.3-1.2,0.4-1.2,0.6v0.1h0.1c4.1,0,7.6,2,10.3,6.1c1.1,2.2,1.7,3.6,1.7,4.3c0.1,0.8,0.6,1.2,1.4,1.2
		l0.9,0.1c1.4,0,2.9-0.3,4.4-0.8l0.1,0.2c-0.6,1.2-1.9,2.1-4,2.8c-1.1,0.2-1.6,0.4-1.6,0.5v0.1c0.7,0.3,1.7,0.5,3.2,0.7h1.2
		c1,0,1.5,0.1,1.5,0.2c-1.8,1.3-3.3,2-4.7,2c0,0.1-0.4,0.1-1.2,0.1l-0.6,0.1c-0.2,0-0.4,0.8-0.8,2.3c-2.3,5.8-6.6,10.3-12.8,13.6
		c-2.6,1.2-5.2,2.1-8,2.8c-1.7,0.3-3.5,0.5-5.4,0.7h-2.5c-1.7,0-4.2-0.4-7.6-1.3C7.5,37.5,3.1,34.5,0,30.6l0.1-0.1h0.1
		c2.9,1.8,5.5,2.7,7.8,2.7h2.4c2.3,0,4.8-0.9,7.6-2.7c0.7-0.5,1.3-1,1.9-1.6v-0.4c0-0.1-0.6-0.3-1.8-0.4c-1.3-0.7-1.9-1.4-1.9-2.2
		v-0.1c0-0.7,0.6-1.4,1.8-2.2v-0.3c-3,0-5.2-1.1-6.5-3.4v-0.2c0.9-0.9,2-1.4,3.1-1.4l0.2-0.2v-0.1c-2-0.6-3.5-1.4-4.5-2.5
		c-1-1.3-1.4-2.3-1.4-3.1c0-0.2,1.1-0.4,3.2-0.6v-0.1l-1.9-1.5c-1.8-1.7-2.8-3.4-2.8-5V4.7l0.1-0.1c2,0.6,5.2,1.9,9.5,3.8
		c3.6,1.7,6.1,3.1,7.6,4.4c1.3,1.2,2,1.7,2.3,1.7l2-4.8c1.2-2.6,2.6-4.8,4.1-6.7c1.3-1.3,2-2,2.3-2h0.1l0.5,0.5l2.5-1.3L39.3,0z
		 M41.8,28.2h0.6v0.2h-0.6V28.2z"/>
</g>
</svg>
